<?xml version="1.0" encoding="UTF-8"?>
<!DOCTYPE svg PUBLIC "-//W3C//DTD SVG 1.1//EN" "http://www.w3.org/Graphics/SVG/1.1/DTD/svg11.dtd">
<svg xmlns="http://www.w3.org/2000/svg" xmlns:xlink="http://www.w3.org/1999/xlink" version="1.1" width="1385px" height="1571px" viewBox="-0.5 -0.5 1385 1571" style="background-color: rgb(255, 255, 255);"><defs/><g><path d="M 689 310 L 689 272 L 759 272 L 759 310" fill="rgb(255, 255, 255)" stroke="rgb(0, 0, 0)" stroke-miterlimit="10" pointer-events="all"/><path d="M 689 310 L 759 310" fill="none" stroke="rgb(0, 0, 0)" stroke-miterlimit="10" pointer-events="all"/><g fill="rgb(0, 0, 0)" font-family="Helvetica" font-style="italic" text-anchor="middle" font-size="16px"><text x="723.5" y="293.5">Input</text></g><path d="M 366 88 L 366 50 L 506 50 L 506 88" fill="rgb(255, 255, 255)" stroke="rgb(0, 0, 0)" stroke-miterlimit="10" pointer-events="all"/><path d="M 366 88 L 506 88" fill="none" stroke="rgb(0, 0, 0)" stroke-miterlimit="10" pointer-events="all"/><g fill="rgb(0, 0, 0)" font-family="Helvetica" font-style="italic" text-anchor="middle" font-size="16px"><text x="435.5" y="71.5">AnimatedRenderer</text></g><path d="M 811 46.24 L 811 114 L 996 114 L 996 190" fill="none" stroke="rgb(0, 0, 0)" stroke-width="2" stroke-miterlimit="10" pointer-events="stroke"/><path d="M 811 40.24 L 815 48.24 L 811 46.24 L 807 48.24 Z" fill="rgb(0, 0, 0)" stroke="rgb(0, 0, 0)" stroke-width="2" stroke-miterlimit="10" pointer-events="all"/><path d="M 736 38 L 736 0 L 836 0 L 836 38" fill="rgb(255, 255, 255)" stroke="rgb(0, 0, 0)" stroke-miterlimit="10" pointer-events="all"/><path d="M 736 38 L 836 38" fill="none" stroke="rgb(0, 0, 0)" stroke-miterlimit="10" pointer-events="all"/><g fill="rgb(0, 0, 0)" font-family="Helvetica" font-style="italic" text-anchor="middle" font-size="16px"><text x="785.5" y="21.5">BaseEntity</text></g><path d="M 946 228 L 946 190 L 1046 190 L 1046 228" fill="rgb(255, 255, 255)" stroke="rgb(0, 0, 0)" stroke-miterlimit="10" pointer-events="all"/><path d="M 946 228 L 1046 228" fill="none" stroke="rgb(0, 0, 0)" stroke-miterlimit="10" pointer-events="all"/><g fill="rgb(0, 0, 0)" font-family="Helvetica" font-style="italic" text-anchor="middle" font-size="16px"><text x="995.5" y="211.5">LevelFinish</text></g><path d="M 209 1088 L 209 1050 L 289 1050 L 289 1088" fill="rgb(255, 255, 255)" stroke="rgb(0, 0, 0)" stroke-miterlimit="10" pointer-events="all"/><path d="M 209 1088 L 289 1088" fill="none" stroke="rgb(0, 0, 0)" stroke-miterlimit="10" pointer-events="all"/><g fill="rgb(0, 0, 0)" font-family="Helvetica" font-style="italic" text-anchor="middle" font-size="16px"><text x="248.5" y="1071.5">Camera</text></g><path d="M 439 1050 L 439 1012 L 519 1012 L 519 1050" fill="rgb(255, 255, 255)" stroke="rgb(0, 0, 0)" stroke-miterlimit="10" pointer-events="all"/><path d="M 439 1050 L 519 1050" fill="none" stroke="rgb(0, 0, 0)" stroke-miterlimit="10" pointer-events="all"/><g fill="rgb(0, 0, 0)" font-family="Helvetica" font-style="italic" text-anchor="middle" font-size="16px"><text x="478.5" y="1033.5">Engine</text></g><path d="M 220.03 952 L 185 952 L 185 740 L 1355 740 L 1355 270 L 1299 270 L 1299 300" fill="none" stroke="#6f0000" stroke-width="2" stroke-miterlimit="10" pointer-events="stroke"/><path d="M 247.03 952 L 233.53 959.94 L 220.03 952 L 233.53 944.06 Z" fill="#6f0000" stroke="#6f0000" stroke-width="2" stroke-miterlimit="10" pointer-events="all"/><path d="M 301.5 923.03 L 301.5 930 L 302 770 L 1115 770 L 1115 340 L 815 340 L 815 140 L 611 140 L 611 190" fill="none" stroke="#6f0000" stroke-width="2" stroke-miterlimit="10" pointer-events="stroke"/><path d="M 301.5 950.03 L 293.56 936.53 L 301.5 923.03 L 309.44 936.53 Z" fill="#6f0000" stroke="#6f0000" stroke-width="2" stroke-miterlimit="10" pointer-events="all"/><path d="M 249 1018.97 L 249 1050" fill="none" stroke="#6f0000" stroke-width="2" stroke-miterlimit="10" pointer-events="stroke"/><path d="M 249 991.97 L 256.94 1005.47 L 249 1018.97 L 241.06 1005.47 Z" fill="#6f0000" stroke="#6f0000" stroke-width="2" stroke-miterlimit="10" pointer-events="all"/><path d="M 301.5 1018.97 L 301.5 1339 L 509 1339" fill="none" stroke="#6f0000" stroke-width="2" stroke-miterlimit="10" pointer-events="stroke"/><path d="M 301.5 991.97 L 309.44 1005.47 L 301.5 1018.97 L 293.56 1005.47 Z" fill="#6f0000" stroke="#6f0000" stroke-width="2" stroke-miterlimit="10" pointer-events="all"/><path d="M 347.97 990 L 349 990 L 349 1259 L 294 1259" fill="none" stroke="#6f0000" stroke-width="2" stroke-miterlimit="10" pointer-events="stroke"/><path d="M 320.97 990 L 334.47 982.06 L 347.97 990 L 334.47 997.94 Z" fill="#6f0000" stroke="#6f0000" stroke-width="2" stroke-miterlimit="10" pointer-events="all"/><path d="M 220.03 971 L 144 971 L 144 1461 L 209 1461" fill="none" stroke="#6f0000" stroke-width="2" stroke-miterlimit="10" pointer-events="stroke"/><path d="M 247.03 971 L 233.53 978.94 L 220.03 971 L 233.53 963.06 Z" fill="#6f0000" stroke="#6f0000" stroke-width="2" stroke-miterlimit="10" pointer-events="all"/><path d="M 249 990 L 249 952 L 319 952 L 319 990" fill="rgb(255, 255, 255)" stroke="rgb(0, 0, 0)" stroke-miterlimit="10" pointer-events="all"/><path d="M 249 990 L 319 990" fill="none" stroke="rgb(0, 0, 0)" stroke-miterlimit="10" pointer-events="all"/><g fill="rgb(0, 0, 0)" font-family="Helvetica" font-style="italic" text-anchor="middle" font-size="16px"><text x="283.5" y="973.5">Game</text></g><path d="M 771 1560 L 771 1522 L 851 1522 L 851 1560" fill="rgb(255, 255, 255)" stroke="rgb(0, 0, 0)" stroke-miterlimit="10" pointer-events="all"/><path d="M 771 1560 L 851 1560" fill="none" stroke="rgb(0, 0, 0)" stroke-miterlimit="10" pointer-events="all"/><g fill="rgb(0, 0, 0)" font-family="Helvetica" font-style="italic" text-anchor="middle" font-size="16px"><text x="810.5" y="1543.5">Button</text></g><path d="M 541.5 1191.03 L 541.5 1031 L 519 1031" fill="none" stroke="#6f0000" stroke-width="2" stroke-miterlimit="10" pointer-events="stroke"/><path d="M 541.5 1218.03 L 533.56 1204.53 L 541.5 1191.03 L 549.44 1204.53 Z" fill="#6f0000" stroke="#6f0000" stroke-width="2" stroke-miterlimit="10" pointer-events="all"/><path d="M 576.5 1191.03 L 576.5 1114 L 609 1114 L 609 1028" fill="none" stroke="#6f0000" stroke-width="2" stroke-miterlimit="10" pointer-events="stroke"/><path d="M 576.5 1218.03 L 568.56 1204.53 L 576.5 1191.03 L 584.44 1204.53 Z" fill="#6f0000" stroke="#6f0000" stroke-width="2" stroke-miterlimit="10" pointer-events="all"/><path d="M 524 1258 L 524 1220 L 594 1220 L 594 1258" fill="rgb(255, 255, 255)" stroke="rgb(0, 0, 0)" stroke-miterlimit="10" pointer-events="all"/><path d="M 524 1258 L 594 1258" fill="none" stroke="rgb(0, 0, 0)" stroke-miterlimit="10" pointer-events="all"/><g fill="rgb(0, 0, 0)" font-family="Helvetica" font-style="italic" text-anchor="middle" font-size="16px"><text x="558.5" y="1241.5">Root</text></g><path d="M 874 1518 L 874 1480 L 944 1480 L 944 1518" fill="rgb(255, 255, 255)" stroke="rgb(0, 0, 0)" stroke-miterlimit="10" pointer-events="all"/><path d="M 874 1518 L 944 1518" fill="none" stroke="rgb(0, 0, 0)" stroke-miterlimit="10" pointer-events="all"/><g fill="rgb(0, 0, 0)" font-family="Helvetica" font-style="italic" text-anchor="middle" font-size="16px"><text x="908.5" y="1501.5">Slider</text></g><path d="M 379 876.24 L 379 971 L 319 971" fill="none" stroke="rgb(0, 0, 0)" stroke-width="2" stroke-miterlimit="10" pointer-events="stroke"/><path d="M 379 870.24 L 383 878.24 L 379 876.24 L 375 878.24 Z" fill="rgb(0, 0, 0)" stroke="rgb(0, 0, 0)" stroke-width="2" stroke-miterlimit="10" pointer-events="all"/><path d="M 399 876.24 L 399 1088" fill="none" stroke="rgb(0, 0, 0)" stroke-width="2" stroke-miterlimit="10" pointer-events="stroke"/><path d="M 399 870.24 L 403 878.24 L 399 876.24 L 395 878.24 Z" fill="rgb(0, 0, 0)" stroke="rgb(0, 0, 0)" stroke-width="2" stroke-miterlimit="10" pointer-events="all"/><path d="M 419 876.24 L 419 978 L 679 978 L 679 1088" fill="none" stroke="rgb(0, 0, 0)" stroke-width="2" stroke-miterlimit="10" pointer-events="stroke"/><path d="M 419 870.24 L 423 878.24 L 419 876.24 L 415 878.24 Z" fill="rgb(0, 0, 0)" stroke="rgb(0, 0, 0)" stroke-width="2" stroke-miterlimit="10" pointer-events="all"/><path d="M 439 876.24 L 439 950 L 909 950 L 909 1282" fill="none" stroke="rgb(0, 0, 0)" stroke-width="2" stroke-miterlimit="10" pointer-events="stroke"/><path d="M 439 870.24 L 443 878.24 L 439 876.24 L 435 878.24 Z" fill="rgb(0, 0, 0)" stroke="rgb(0, 0, 0)" stroke-width="2" stroke-miterlimit="10" pointer-events="all"/><path d="M 459 876.24 L 459 900 L 1079 900 L 1079 1380" fill="none" stroke="rgb(0, 0, 0)" stroke-width="2" stroke-miterlimit="10" pointer-events="stroke"/><path d="M 459 870.24 L 463 878.24 L 459 876.24 L 455 878.24 Z" fill="rgb(0, 0, 0)" stroke="rgb(0, 0, 0)" stroke-width="2" stroke-miterlimit="10" pointer-events="all"/><path d="M 379 868 L 379 830 L 459 830 L 459 868" fill="rgb(255, 255, 255)" stroke="rgb(0, 0, 0)" stroke-miterlimit="10" pointer-events="all"/><path d="M 379 868 L 459 868" fill="none" stroke="rgb(0, 0, 0)" stroke-miterlimit="10" pointer-events="all"/><g fill="rgb(0, 0, 0)" font-family="Helvetica" font-style="italic" text-anchor="middle" font-size="16px"><text x="418.5" y="851.5">Window</text></g><path d="M 809 1126 L 809 1088 L 869 1088 L 869 1126" fill="rgb(255, 255, 255)" stroke="rgb(0, 0, 0)" stroke-miterlimit="10" pointer-events="all"/><path d="M 809 1126 L 869 1126" fill="none" stroke="rgb(0, 0, 0)" stroke-miterlimit="10" pointer-events="all"/><g fill="rgb(0, 0, 0)" font-family="Helvetica" font-style="italic" text-anchor="middle" font-size="16px"><text x="838.5" y="1109.5">Title</text></g><path d="M 1101 1320 L 1101 1282 L 1211 1282 L 1211 1320" fill="rgb(255, 255, 255)" stroke="rgb(0, 0, 0)" stroke-miterlimit="10" pointer-events="all"/><path d="M 1101 1320 L 1211 1320" fill="none" stroke="rgb(0, 0, 0)" stroke-miterlimit="10" pointer-events="all"/><g fill="rgb(0, 0, 0)" font-family="Helvetica" font-style="italic" text-anchor="middle" font-size="16px"><text x="1155.5" y="1303.5">ActionButton</text></g><path d="M 209 1480 L 209 1442 L 339 1442 L 339 1480" fill="rgb(255, 255, 255)" stroke="rgb(0, 0, 0)" stroke-miterlimit="10" pointer-events="all"/><path d="M 209 1480 L 339 1480" fill="none" stroke="rgb(0, 0, 0)" stroke-miterlimit="10" pointer-events="all"/><g fill="rgb(0, 0, 0)" font-family="Helvetica" font-style="italic" text-anchor="middle" font-size="16px"><text x="273.5" y="1463.5">BackgroundLayer</text></g><path d="M 679 1154.97 L 679 1320 L 609 1320" fill="none" stroke="#6f0000" stroke-width="2" stroke-miterlimit="10" pointer-events="stroke"/><path d="M 679 1127.97 L 686.94 1141.47 L 679 1154.97 L 671.06 1141.47 Z" fill="#6f0000" stroke="#6f0000" stroke-width="2" stroke-miterlimit="10" pointer-events="all"/><path d="M 704 1154.97 L 704 1531.5 L 771 1531.5" fill="none" stroke="#6f0000" stroke-width="2" stroke-miterlimit="10" pointer-events="stroke"/><path d="M 704 1127.97 L 711.94 1141.47 L 704 1154.97 L 696.06 1141.47 Z" fill="#6f0000" stroke="#6f0000" stroke-width="2" stroke-miterlimit="10" pointer-events="all"/><path d="M 654 1154.97 L 654 1461 L 339 1461" fill="none" stroke="#6f0000" stroke-width="2" stroke-miterlimit="10" pointer-events="stroke"/><path d="M 654 1127.97 L 661.94 1141.47 L 654 1154.97 L 646.06 1141.47 Z" fill="#6f0000" stroke="#6f0000" stroke-width="2" stroke-miterlimit="10" pointer-events="all"/><path d="M 757.97 1107 L 809 1107" fill="none" stroke="#6f0000" stroke-width="2" stroke-miterlimit="10" pointer-events="stroke"/><path d="M 730.97 1107 L 744.47 1099.06 L 757.97 1107 L 744.47 1114.94 Z" fill="#6f0000" stroke="#6f0000" stroke-width="2" stroke-miterlimit="10" pointer-events="all"/><path d="M 629 1126 L 629 1088 L 729 1088 L 729 1126" fill="rgb(255, 255, 255)" stroke="rgb(0, 0, 0)" stroke-miterlimit="10" pointer-events="all"/><path d="M 629 1126 L 729 1126" fill="none" stroke="rgb(0, 0, 0)" stroke-miterlimit="10" pointer-events="all"/><g fill="rgb(0, 0, 0)" font-family="Helvetica" font-style="italic" text-anchor="middle" font-size="16px"><text x="678.5" y="1109.5">MainMenu</text></g><path d="M 840.03 1301 L 729 1301 L 729 1378 L 584 1378 L 584 1358" fill="none" stroke="#6f0000" stroke-width="2" stroke-miterlimit="10" pointer-events="stroke"/><path d="M 867.03 1301 L 853.53 1308.94 L 840.03 1301 L 853.53 1293.06 Z" fill="#6f0000" stroke="#6f0000" stroke-width="2" stroke-miterlimit="10" pointer-events="all"/><path d="M 869 1348.97 L 869 1431 L 811 1431 L 811 1522" fill="none" stroke="#6f0000" stroke-width="2" stroke-miterlimit="10" pointer-events="stroke"/><path d="M 869 1321.97 L 876.94 1335.47 L 869 1348.97 L 861.06 1335.47 Z" fill="#6f0000" stroke="#6f0000" stroke-width="2" stroke-miterlimit="10" pointer-events="all"/><path d="M 909 1348.97 L 909 1480" fill="none" stroke="#6f0000" stroke-width="2" stroke-miterlimit="10" pointer-events="stroke"/><path d="M 909 1321.97 L 916.94 1335.47 L 909 1348.97 L 901.06 1335.47 Z" fill="#6f0000" stroke="#6f0000" stroke-width="2" stroke-miterlimit="10" pointer-events="all"/><path d="M 977.97 1301 L 1101 1301" fill="none" stroke="#6f0000" stroke-width="2" stroke-miterlimit="10" pointer-events="stroke"/><path d="M 950.97 1301 L 964.47 1293.06 L 977.97 1301 L 964.47 1308.94 Z" fill="#6f0000" stroke="#6f0000" stroke-width="2" stroke-miterlimit="10" pointer-events="all"/><path d="M 869 1320 L 869 1282 L 949 1282 L 949 1320" fill="rgb(255, 255, 255)" stroke="rgb(0, 0, 0)" stroke-miterlimit="10" pointer-events="all"/><path d="M 869 1320 L 949 1320" fill="none" stroke="rgb(0, 0, 0)" stroke-miterlimit="10" pointer-events="all"/><g fill="rgb(0, 0, 0)" font-family="Helvetica" font-style="italic" text-anchor="middle" font-size="16px"><text x="908.5" y="1303.5">Settings</text></g><path d="M 1015.03 1399 L 559 1399 L 559 1358" fill="none" stroke="#6f0000" stroke-width="2" stroke-miterlimit="10" pointer-events="stroke"/><path d="M 1042.03 1399 L 1028.53 1406.94 L 1015.03 1399 L 1028.53 1391.06 Z" fill="#6f0000" stroke="#6f0000" stroke-width="2" stroke-miterlimit="10" pointer-events="all"/><path d="M 1079 1446.97 L 1079 1541 L 851 1541" fill="none" stroke="#6f0000" stroke-width="2" stroke-miterlimit="10" pointer-events="stroke"/><path d="M 1079 1419.97 L 1086.94 1433.47 L 1079 1446.97 L 1071.06 1433.47 Z" fill="#6f0000" stroke="#6f0000" stroke-width="2" stroke-miterlimit="10" pointer-events="all"/><path d="M 1044 1418 L 1044 1380 L 1114 1380 L 1114 1418" fill="rgb(255, 255, 255)" stroke="rgb(0, 0, 0)" stroke-miterlimit="10" pointer-events="all"/><path d="M 1044 1418 L 1114 1418" fill="none" stroke="rgb(0, 0, 0)" stroke-miterlimit="10" pointer-events="all"/><g fill="rgb(0, 0, 0)" font-family="Helvetica" font-style="italic" text-anchor="middle" font-size="16px"><text x="1078.5" y="1401.5">Pause</text></g><path d="M 459 1154.97 L 459 1320 L 509 1320" fill="none" stroke="#6f0000" stroke-width="2" stroke-miterlimit="10" pointer-events="stroke"/><path d="M 459 1127.97 L 466.94 1141.47 L 459 1154.97 L 451.06 1141.47 Z" fill="#6f0000" stroke="#6f0000" stroke-width="2" stroke-miterlimit="10" pointer-events="all"/><path d="M 429 1154.97 L 429 1541 L 771 1541" fill="none" stroke="#6f0000" stroke-width="2" stroke-miterlimit="10" pointer-events="stroke"/><path d="M 429 1127.97 L 436.94 1141.47 L 429 1154.97 L 421.06 1141.47 Z" fill="#6f0000" stroke="#6f0000" stroke-width="2" stroke-miterlimit="10" pointer-events="all"/><path d="M 399 1126 L 399 1088 L 519 1088 L 519 1126" fill="rgb(255, 255, 255)" stroke="rgb(0, 0, 0)" stroke-miterlimit="10" pointer-events="all"/><path d="M 399 1126 L 519 1126" fill="none" stroke="rgb(0, 0, 0)" stroke-miterlimit="10" pointer-events="all"/><g fill="rgb(0, 0, 0)" font-family="Helvetica" font-style="italic" text-anchor="middle" font-size="16px"><text x="458.5" y="1109.5">LevelSelection</text></g><path d="M 324 310 L 324 272 L 434 272 L 434 310" fill="rgb(255, 255, 255)" stroke="rgb(0, 0, 0)" stroke-miterlimit="10" pointer-events="all"/><path d="M 324 310 L 434 310" fill="none" stroke="rgb(0, 0, 0)" stroke-miterlimit="10" pointer-events="all"/><g fill="rgb(0, 0, 0)" font-family="Helvetica" font-style="italic" text-anchor="middle" font-size="16px"><text x="378.5" y="293.5">RigidBody2D</text></g><path d="M 164 1278 L 164 1240 L 294 1240 L 294 1278" fill="rgb(255, 255, 255)" stroke="rgb(0, 0, 0)" stroke-miterlimit="10" pointer-events="all"/><path d="M 164 1278 L 294 1278" fill="none" stroke="rgb(0, 0, 0)" stroke-miterlimit="10" pointer-events="all"/><g fill="rgb(0, 0, 0)" font-family="Helvetica" font-style="italic" text-anchor="middle" font-size="16px"><text x="228.5" y="1261.5">NeaGameConfig</text></g><path d="M 559 1320 L 559 1266.24" fill="none" stroke="rgb(0, 0, 0)" stroke-width="2" stroke-miterlimit="10" pointer-events="stroke"/><path d="M 559 1260.24 L 563 1268.24 L 559 1266.24 L 555 1268.24 Z" fill="rgb(0, 0, 0)" stroke="rgb(0, 0, 0)" stroke-width="2" stroke-miterlimit="10" pointer-events="all"/><path d="M 534 1386.97 L 534 1398 L 229 1398 L 229 1278" fill="none" stroke="#6f0000" stroke-width="2" stroke-miterlimit="10" pointer-events="stroke"/><path d="M 534 1359.97 L 541.94 1373.47 L 534 1386.97 L 526.06 1373.47 Z" fill="#6f0000" stroke="#6f0000" stroke-width="2" stroke-miterlimit="10" pointer-events="all"/><path d="M 509 1358 L 509 1320 L 609 1320 L 609 1358" fill="rgb(255, 255, 255)" stroke="rgb(0, 0, 0)" stroke-miterlimit="10" pointer-events="all"/><path d="M 509 1358 L 609 1358" fill="none" stroke="rgb(0, 0, 0)" stroke-miterlimit="10" pointer-events="all"/><g fill="rgb(0, 0, 0)" font-family="Helvetica" font-style="italic" text-anchor="middle" font-size="16px"><text x="558.5" y="1341.5">NeaGame</text></g><path d="M 549 1028 L 549 990 L 669 990 L 669 1028" fill="rgb(255, 255, 255)" stroke="rgb(0, 0, 0)" stroke-miterlimit="10" pointer-events="all"/><path d="M 549 1028 L 669 1028" fill="none" stroke="rgb(0, 0, 0)" stroke-miterlimit="10" pointer-events="all"/><g fill="rgb(0, 0, 0)" font-family="Helvetica" font-style="italic" text-anchor="middle" font-size="16px"><text x="608.5" y="1011.5">SoundManager</text></g><path d="M 576 190 L 576 114 L 761 114 L 761 46.24" fill="none" stroke="rgb(0, 0, 0)" stroke-width="2" stroke-miterlimit="10" pointer-events="stroke"/><path d="M 761 40.24 L 765 48.24 L 761 46.24 L 757 48.24 Z" fill="rgb(0, 0, 0)" stroke="rgb(0, 0, 0)" stroke-width="2" stroke-miterlimit="10" pointer-events="all"/><path d="M 477.03 209 L 26 209 L 26 579 L 46 579" fill="none" stroke="#6f0000" stroke-width="2" stroke-miterlimit="10" pointer-events="stroke"/><path d="M 504.03 209 L 490.53 216.94 L 477.03 209 L 490.53 201.06 Z" fill="#6f0000" stroke="#6f0000" stroke-width="2" stroke-miterlimit="10" pointer-events="all"/><path d="M 576 256.97 L 576 360" fill="none" stroke="#6f0000" stroke-width="2" stroke-miterlimit="10" pointer-events="stroke"/><path d="M 576 229.97 L 583.94 243.47 L 576 256.97 L 568.06 243.47 Z" fill="#6f0000" stroke="#6f0000" stroke-width="2" stroke-miterlimit="10" pointer-events="all"/><path d="M 506 161.03 L 506 88" fill="none" stroke="#6f0000" stroke-width="2" stroke-miterlimit="10" pointer-events="stroke"/><path d="M 506 188.03 L 498.06 174.53 L 506 161.03 L 513.94 174.53 Z" fill="#6f0000" stroke="#6f0000" stroke-width="2" stroke-miterlimit="10" pointer-events="all"/><path d="M 506 256.97 L 506 291 L 434 291" fill="none" stroke="#6f0000" stroke-width="2" stroke-miterlimit="10" pointer-events="stroke"/><path d="M 506 229.97 L 513.94 243.47 L 506 256.97 L 498.06 243.47 Z" fill="#6f0000" stroke="#6f0000" stroke-width="2" stroke-miterlimit="10" pointer-events="all"/><path d="M 646 256.97 L 646 291 L 689 291" fill="none" stroke="#6f0000" stroke-width="2" stroke-miterlimit="10" pointer-events="stroke"/><path d="M 646 229.97 L 653.94 243.47 L 646 256.97 L 638.06 243.47 Z" fill="#6f0000" stroke="#6f0000" stroke-width="2" stroke-miterlimit="10" pointer-events="all"/><path d="M 674.97 190 L 696 190" fill="none" stroke="#6f0000" stroke-width="2" stroke-miterlimit="10" pointer-events="stroke"/><path d="M 647.97 190 L 661.47 182.06 L 674.97 190 L 661.47 197.94 Z" fill="#6f0000" stroke="#6f0000" stroke-width="2" stroke-miterlimit="10" pointer-events="all"/><path d="M 506 228 L 506 190 L 646 190 L 646 228" fill="rgb(255, 255, 255)" stroke="rgb(0, 0, 0)" stroke-miterlimit="10" pointer-events="all"/><path d="M 506 228 L 646 228" fill="none" stroke="rgb(0, 0, 0)" stroke-miterlimit="10" pointer-events="all"/><g fill="rgb(0, 0, 0)" font-family="Helvetica" font-style="italic" text-anchor="middle" font-size="16px"><text x="575.5" y="211.5">Player</text></g><path d="M 501 398 L 501 360 L 651 360 L 651 398" fill="rgb(255, 255, 255)" stroke="rgb(0, 0, 0)" stroke-miterlimit="10" pointer-events="none"/><path d="M 501 398 L 651 398" fill="none" stroke="rgb(0, 0, 0)" stroke-miterlimit="10" pointer-events="none"/><g fill="rgb(0, 0, 0)" font-family="Helvetica" font-style="italic" pointer-events="none" text-anchor="middle" font-size="16px"><text x="575.5" y="381.5">PlayerStateMachine</text></g><path d="M 576 426.97 L 576 440" fill="none" stroke="#6f0000" stroke-width="2" stroke-miterlimit="10" pointer-events="none"/><path d="M 576 399.97 L 583.94 413.47 L 576 426.97 L 568.06 413.47 Z" fill="#6f0000" stroke="#6f0000" stroke-width="2" stroke-miterlimit="10" pointer-events="none"/><path d="M 501 688 L 501 708 L 291 708 L 291 598" fill="none" stroke="#6f0000" stroke-width="2" stroke-miterlimit="10" pointer-events="none"/><path d="M 436 688 L 436 650 L 566 650 L 566 688" fill="rgb(255, 255, 255)" stroke="rgb(0, 0, 0)" stroke-miterlimit="10" pointer-events="none"/><path d="M 436 688 L 566 688" fill="none" stroke="rgb(0, 0, 0)" stroke-miterlimit="10" pointer-events="none"/><g fill="rgb(0, 0, 0)" font-family="Helvetica" font-style="italic" pointer-events="none" text-anchor="middle" font-size="16px"><text x="500.5" y="671.5">PlayerInAirState</text></g><path d="M 651 688 L 651 708 L 501 708 L 501 688" fill="none" stroke="#6f0000" stroke-width="2" stroke-miterlimit="10" pointer-events="none"/><path d="M 586 688 L 586 650 L 716 650 L 716 688" fill="rgb(255, 255, 255)" stroke="rgb(0, 0, 0)" stroke-miterlimit="10" pointer-events="none"/><path d="M 586 688 L 716 688" fill="none" stroke="rgb(0, 0, 0)" stroke-miterlimit="10" pointer-events="none"/><g fill="rgb(0, 0, 0)" font-family="Helvetica" font-style="italic" pointer-events="none" text-anchor="middle" font-size="16px"><text x="650.5" y="671.5">PlayerSlideState</text></g><path d="M 526 478 L 526 440 L 626 440 L 626 478" fill="rgb(255, 255, 255)" stroke="rgb(0, 0, 0)" stroke-miterlimit="10" pointer-events="none"/><path d="M 526 478 L 626 478" fill="none" stroke="rgb(0, 0, 0)" stroke-miterlimit="10" pointer-events="none"/><g fill="rgb(0, 0, 0)" font-family="Helvetica" font-style="italic" pointer-events="none" text-anchor="middle" font-size="16px"><text x="575.5" y="461.5">PlayerState</text></g><path d="M 231 598 L 231 560 L 351 560 L 351 598" fill="rgb(255, 255, 255)" stroke="rgb(0, 0, 0)" stroke-miterlimit="10" pointer-events="none"/><path d="M 231 598 L 351 598" fill="none" stroke="rgb(0, 0, 0)" stroke-miterlimit="10" pointer-events="none"/><g fill="rgb(0, 0, 0)" font-family="Helvetica" font-style="italic" pointer-events="none" text-anchor="middle" font-size="16px"><text x="290.5" y="581.5">PlayerRunState</text></g><path d="M 46 598 L 46 560 L 166 560 L 166 598" fill="rgb(255, 255, 255)" stroke="rgb(0, 0, 0)" stroke-miterlimit="10" pointer-events="none"/><path d="M 46 598 L 166 598" fill="none" stroke="rgb(0, 0, 0)" stroke-miterlimit="10" pointer-events="none"/><g fill="rgb(0, 0, 0)" font-family="Helvetica" font-style="italic" pointer-events="none" text-anchor="middle" font-size="16px"><text x="105.5" y="581.5">PlayerIdleState</text></g><path d="M 461 598 L 461 620 L 291 620 L 291 598" fill="none" stroke="#6f0000" stroke-width="2" stroke-miterlimit="10" pointer-events="none"/><path d="M 396 598 L 396 560 L 526 560 L 526 598" fill="rgb(255, 255, 255)" stroke="rgb(0, 0, 0)" stroke-miterlimit="10" pointer-events="none"/><path d="M 396 598 L 526 598" fill="none" stroke="rgb(0, 0, 0)" stroke-miterlimit="10" pointer-events="none"/><g fill="rgb(0, 0, 0)" font-family="Helvetica" font-style="italic" pointer-events="none" text-anchor="middle" font-size="16px"><text x="460.5" y="581.5">PlayerLandState</text></g><path d="M 211 538 L 211 500 L 371 500 L 371 538" fill="rgb(255, 255, 255)" stroke="rgb(0, 0, 0)" stroke-miterlimit="10" pointer-events="none"/><path d="M 211 538 L 371 538" fill="none" stroke="rgb(0, 0, 0)" stroke-miterlimit="10" pointer-events="none"/><g fill="rgb(0, 0, 0)" font-family="Helvetica" font-style="italic" pointer-events="none" text-anchor="middle" font-size="16px"><text x="290.5" y="521.5">PlayerGroundedState</text></g><path d="M 291 560 L 291 546.24" fill="none" stroke="rgb(0, 0, 0)" stroke-width="2" stroke-miterlimit="10" pointer-events="none"/><path d="M 291 540.24 L 295 548.24 L 291 546.24 L 287 548.24 Z" fill="rgb(0, 0, 0)" stroke="rgb(0, 0, 0)" stroke-width="2" stroke-miterlimit="10" pointer-events="none"/><path d="M 106 560 L 106 519 L 202.76 519" fill="none" stroke="rgb(0, 0, 0)" stroke-width="2" stroke-miterlimit="10" pointer-events="none"/><path d="M 208.76 519 L 200.76 523 L 202.76 519 L 200.76 515 Z" fill="rgb(0, 0, 0)" stroke="rgb(0, 0, 0)" stroke-width="2" stroke-miterlimit="10" pointer-events="none"/><path d="M 461 560 L 461 519 L 379.24 519" fill="none" stroke="rgb(0, 0, 0)" stroke-width="2" stroke-miterlimit="10" pointer-events="none"/><path d="M 373.24 519 L 381.24 515 L 379.24 519 L 381.24 523 Z" fill="rgb(0, 0, 0)" stroke="rgb(0, 0, 0)" stroke-width="2" stroke-miterlimit="10" pointer-events="none"/><path d="M 966 608 L 966 570 L 1096 570 L 1096 608" fill="rgb(255, 255, 255)" stroke="rgb(0, 0, 0)" stroke-miterlimit="10" pointer-events="none"/><path d="M 966 608 L 1096 608" fill="none" stroke="rgb(0, 0, 0)" stroke-miterlimit="10" pointer-events="none"/><g fill="rgb(0, 0, 0)" font-family="Helvetica" font-style="italic" pointer-events="none" text-anchor="middle" font-size="16px"><text x="1030.5" y="591.5">PlayerDashState</text></g><path d="M 626 608 L 626 570 L 756 570 L 756 608" fill="rgb(255, 255, 255)" stroke="rgb(0, 0, 0)" stroke-miterlimit="10" pointer-events="none"/><path d="M 626 608 L 756 608" fill="none" stroke="rgb(0, 0, 0)" stroke-miterlimit="10" pointer-events="none"/><g fill="rgb(0, 0, 0)" font-family="Helvetica" font-style="italic" pointer-events="none" text-anchor="middle" font-size="16px"><text x="690.5" y="591.5">PlayerJumpState</text></g><path d="M 791 608 L 791 570 L 951 570 L 951 608" fill="rgb(255, 255, 255)" stroke="rgb(0, 0, 0)" stroke-miterlimit="10" pointer-events="none"/><path d="M 791 608 L 951 608" fill="none" stroke="rgb(0, 0, 0)" stroke-miterlimit="10" pointer-events="none"/><g fill="rgb(0, 0, 0)" font-family="Helvetica" font-style="italic" pointer-events="none" text-anchor="middle" font-size="16px"><text x="870.5" y="591.5">PlayerWallJumpState</text></g><path d="M 806 548 L 806 510 L 936 510 L 936 548" fill="rgb(255, 255, 255)" stroke="rgb(0, 0, 0)" stroke-miterlimit="10" pointer-events="none"/><path d="M 806 548 L 936 548" fill="none" stroke="rgb(0, 0, 0)" stroke-miterlimit="10" pointer-events="none"/><g fill="rgb(0, 0, 0)" font-family="Helvetica" font-style="italic" pointer-events="none" text-anchor="middle" font-size="16px"><text x="870.5" y="531.5">PlayerAbilityState</text></g><path d="M 691 570 L 691 529 L 797.76 529" fill="none" stroke="rgb(0, 0, 0)" stroke-width="2" stroke-miterlimit="10" pointer-events="none"/><path d="M 803.76 529 L 795.76 533 L 797.76 529 L 795.76 525 Z" fill="rgb(0, 0, 0)" stroke="rgb(0, 0, 0)" stroke-width="2" stroke-miterlimit="10" pointer-events="none"/><path d="M 871 570 L 871 556.24" fill="none" stroke="rgb(0, 0, 0)" stroke-width="2" stroke-miterlimit="10" pointer-events="none"/><path d="M 871 550.24 L 875 558.24 L 871 556.24 L 867 558.24 Z" fill="rgb(0, 0, 0)" stroke="rgb(0, 0, 0)" stroke-width="2" stroke-miterlimit="10" pointer-events="none"/><path d="M 1031 570 L 1031 529 L 944.24 529" fill="none" stroke="rgb(0, 0, 0)" stroke-width="2" stroke-miterlimit="10" pointer-events="none"/><path d="M 938.24 529 L 946.24 525 L 944.24 529 L 946.24 533 Z" fill="rgb(0, 0, 0)" stroke="rgb(0, 0, 0)" stroke-width="2" stroke-miterlimit="10" pointer-events="none"/><path d="M 533.5 650 L 533.5 564 L 551 564 L 551 486.24" fill="none" stroke="rgb(0, 0, 0)" stroke-width="2" stroke-miterlimit="10" pointer-events="none"/><path d="M 551 480.24 L 555 488.24 L 551 486.24 L 547 488.24 Z" fill="rgb(0, 0, 0)" stroke="rgb(0, 0, 0)" stroke-width="2" stroke-miterlimit="10" pointer-events="none"/><path d="M 618.5 650 L 618.5 564 L 601 564 L 601 486.24" fill="none" stroke="rgb(0, 0, 0)" stroke-width="2" stroke-miterlimit="10" pointer-events="none"/><path d="M 601 480.24 L 605 488.24 L 601 486.24 L 597 488.24 Z" fill="rgb(0, 0, 0)" stroke="rgb(0, 0, 0)" stroke-width="2" stroke-miterlimit="10" pointer-events="none"/><path d="M 291 500 L 291 459 L 517.76 459" fill="none" stroke="rgb(0, 0, 0)" stroke-width="2" stroke-miterlimit="10" pointer-events="none"/><path d="M 523.76 459 L 515.76 463 L 517.76 459 L 515.76 455 Z" fill="rgb(0, 0, 0)" stroke="rgb(0, 0, 0)" stroke-width="2" stroke-miterlimit="10" pointer-events="none"/><path d="M 871 510 L 871 459 L 634.24 459" fill="none" stroke="rgb(0, 0, 0)" stroke-width="2" stroke-miterlimit="10" pointer-events="none"/><path d="M 628.24 459 L 636.24 455 L 634.24 459 L 636.24 463 Z" fill="rgb(0, 0, 0)" stroke="rgb(0, 0, 0)" stroke-width="2" stroke-miterlimit="10" pointer-events="none"/><path d="M 691 608 L 691 629 L 736 629 L 736 708 L 651 708 L 651 688" fill="none" stroke="#6f0000" stroke-width="2" stroke-miterlimit="10" pointer-events="none"/><path d="M 871 608 L 871 708 L 651 708 L 651 688" fill="none" stroke="#6f0000" stroke-width="2" stroke-miterlimit="10" pointer-events="none"/><path d="M 1031 608 L 1031 708 L 651 708 L 651 688" fill="none" stroke="#6f0000" stroke-width="2" stroke-miterlimit="10" pointer-events="none"/><path d="M 291 598 L 291 620 L 26 620 L 26 560" fill="none" stroke="#6f0000" stroke-width="2" stroke-miterlimit="10" pointer-events="none"/><path d="M 696 228 L 696 190 L 786 190 L 786 228" fill="rgb(255, 255, 255)" stroke="rgb(0, 0, 0)" stroke-miterlimit="10" pointer-events="none"/><path d="M 696 228 L 786 228" fill="none" stroke="rgb(0, 0, 0)" stroke-miterlimit="10" pointer-events="none"/><g fill="rgb(0, 0, 0)" font-family="Helvetica" font-style="italic" pointer-events="none" text-anchor="middle" font-size="16px"><text x="740.5" y="211.5">Vector2D</text></g><path d="M 1090.03 209 L 1046 209" fill="none" stroke="#6f0000" stroke-width="2" stroke-miterlimit="10" pointer-events="none"/><path d="M 1117.03 209 L 1103.53 216.94 L 1090.03 209 L 1103.53 201.06 Z" fill="#6f0000" stroke="#6f0000" stroke-width="2" stroke-miterlimit="10" pointer-events="none"/><path d="M 1119 228 L 1119 190 L 1209 190 L 1209 228" fill="rgb(255, 255, 255)" stroke="rgb(0, 0, 0)" stroke-miterlimit="10" pointer-events="none"/><path d="M 1119 228 L 1209 228" fill="none" stroke="rgb(0, 0, 0)" stroke-miterlimit="10" pointer-events="none"/><g fill="rgb(0, 0, 0)" font-family="Helvetica" font-style="italic" pointer-events="none" text-anchor="middle" font-size="16px"><text x="1163.5" y="211.5">LevelData</text></g><path d="M 1254 558 L 1254 520 L 1344 520 L 1344 558" fill="rgb(255, 255, 255)" stroke="rgb(0, 0, 0)" stroke-miterlimit="10" pointer-events="none"/><path d="M 1254 558 L 1344 558" fill="none" stroke="rgb(0, 0, 0)" stroke-miterlimit="10" pointer-events="none"/><g fill="rgb(0, 0, 0)" font-family="Helvetica" font-style="italic" pointer-events="none" text-anchor="middle" font-size="16px"><text x="1298.5" y="541.5">TilesetTile</text></g><path d="M 1119 118 L 1119 80 L 1209 80 L 1209 118" fill="rgb(255, 255, 255)" stroke="rgb(0, 0, 0)" stroke-miterlimit="10" pointer-events="none"/><path d="M 1119 118 L 1209 118" fill="none" stroke="rgb(0, 0, 0)" stroke-miterlimit="10" pointer-events="none"/><g fill="rgb(0, 0, 0)" font-family="Helvetica" font-style="italic" pointer-events="none" text-anchor="middle" font-size="16px"><text x="1163.5" y="101.5">LevelTile</text></g><path d="M 1259 438 L 1259 400 L 1339 400 L 1339 438" fill="rgb(255, 255, 255)" stroke="rgb(0, 0, 0)" stroke-miterlimit="10" pointer-events="none"/><path d="M 1259 438 L 1339 438" fill="none" stroke="rgb(0, 0, 0)" stroke-miterlimit="10" pointer-events="none"/><g fill="rgb(0, 0, 0)" font-family="Helvetica" font-style="italic" pointer-events="none" text-anchor="middle" font-size="16px"><text x="1298.5" y="421.5">Tileset</text></g><path d="M 1129 338 L 1129 300 L 1199 300 L 1199 338" fill="rgb(255, 255, 255)" stroke="rgb(0, 0, 0)" stroke-miterlimit="10" pointer-events="none"/><path d="M 1129 338 L 1199 338" fill="none" stroke="rgb(0, 0, 0)" stroke-miterlimit="10" pointer-events="none"/><g fill="rgb(0, 0, 0)" font-family="Helvetica" font-style="italic" pointer-events="none" text-anchor="middle" font-size="16px"><text x="1163.5" y="321.5">Level</text></g><path d="M 1264 338 L 1264 300 L 1334 300 L 1334 338" fill="rgb(255, 255, 255)" stroke="rgb(0, 0, 0)" stroke-miterlimit="10" pointer-events="none"/><path d="M 1264 338 L 1334 338" fill="none" stroke="rgb(0, 0, 0)" stroke-miterlimit="10" pointer-events="none"/><g fill="rgb(0, 0, 0)" font-family="Helvetica" font-style="italic" pointer-events="none" text-anchor="middle" font-size="16px"><text x="1298.5" y="321.5">World</text></g><path d="M 1164 161.03 L 1164 118" fill="none" stroke="#6f0000" stroke-width="2" stroke-miterlimit="10" pointer-events="none"/><path d="M 1164 188.03 L 1156.06 174.53 L 1164 161.03 L 1171.94 174.53 Z" fill="#6f0000" stroke="#6f0000" stroke-width="2" stroke-miterlimit="10" pointer-events="none"/><path d="M 1299 466.97 L 1299 520" fill="none" stroke="#6f0000" stroke-width="2" stroke-miterlimit="10" pointer-events="none"/><path d="M 1299 439.97 L 1306.94 453.47 L 1299 466.97 L 1291.06 453.47 Z" fill="#6f0000" stroke="#6f0000" stroke-width="2" stroke-miterlimit="10" pointer-events="none"/><path d="M 1164 366.97 L 1164 419 L 1259 419" fill="none" stroke="#6f0000" stroke-width="2" stroke-miterlimit="10" pointer-events="none"/><path d="M 1164 339.97 L 1171.94 353.47 L 1164 366.97 L 1156.06 353.47 Z" fill="#6f0000" stroke="#6f0000" stroke-width="2" stroke-miterlimit="10" pointer-events="none"/><path d="M 1164 271.03 L 1164 228" fill="none" stroke="#6f0000" stroke-width="2" stroke-miterlimit="10" pointer-events="none"/><path d="M 1164 298.03 L 1156.06 284.53 L 1164 271.03 L 1171.94 284.53 Z" fill="#6f0000" stroke="#6f0000" stroke-width="2" stroke-miterlimit="10" pointer-events="none"/><path d="M 1235.03 319 L 1199 319" fill="none" stroke="#6f0000" stroke-width="2" stroke-miterlimit="10" pointer-events="none"/><path d="M 1262.03 319 L 1248.53 326.94 L 1235.03 319 L 1248.53 311.06 Z" fill="#6f0000" stroke="#6f0000" stroke-width="2" stroke-miterlimit="10" pointer-events="none"/><path d="M 1299 366.97 L 1299 400" fill="none" stroke="#6f0000" stroke-width="2" stroke-miterlimit="10" pointer-events="none"/><path d="M 1299 339.97 L 1306.94 353.47 L 1299 366.97 L 1291.06 353.47 Z" fill="#6f0000" stroke="#6f0000" stroke-width="2" stroke-miterlimit="10" pointer-events="none"/><path d="M 654.97 440 L 689 440 L 689 320 L 611 320 L 611 228" fill="none" stroke="#6f0000" stroke-width="2" stroke-miterlimit="10" pointer-events="none"/><path d="M 627.97 440 L 641.47 432.06 L 654.97 440 L 641.47 447.94 Z" fill="#6f0000" stroke="#6f0000" stroke-width="2" stroke-miterlimit="10" pointer-events="none"/></g></svg>